<?xml version="1.0" encoding="UTF-8"?><svg id="Layer_1" xmlns="http://www.w3.org/2000/svg" viewBox="0 0 85 85"><path d="M47.5,19.76c3.52,1.88,7.04,3.76,10.58,5.62,.89,.47,1.54,1.13,2,2.03,1.77,3.46,3.57,6.92,5.35,10.37,.69,1.34,.34,2.41-1.02,3.07-2.75,1.34-5.5,2.68-8.26,4-.34,.16-.48,.34-.48,.74,.02,5.78,.01,11.55,.01,17.33,0,2.15-1.26,3.42-3.42,3.42-6.52,0-13.04,0-19.56,0-2.15,0-3.41-1.27-3.41-3.42,0-5.76,0-11.52,.01-17.28,0-.43-.14-.63-.52-.81-2.68-1.28-5.34-2.6-8.02-3.87-.75-.36-1.33-.82-1.57-1.64v-.82c.13-.27,.26-.54,.39-.81,1.73-3.35,3.48-6.69,5.18-10.05,.55-1.09,1.34-1.86,2.41-2.42,3.45-1.8,6.87-3.64,10.3-5.46h.73c.05,.03,.1,.07,.15,.09,1.55,.52,3.15,.68,4.78,.61,1.24-.05,2.46-.22,3.62-.7h.73Zm3.7,3.73c-.05,.05-.07,.06-.07,.07-.06,.12-.11,.25-.17,.37-1.04,2.34-2.74,4-5.11,4.97-.88,.36-1.49,.17-2.06-.6-.14-.18-.28-.36-.41-.54l-.1,.05v.49c0,2.2,0,4.4,0,6.6,0,.18,0,.37-.03,.54-.08,.39-.34,.6-.74,.6-.4,0-.66-.21-.74-.6-.04-.18-.04-.36-.04-.54,0-2.21,0-4.43,0-6.64,0-.16-.02-.32-.03-.59-.19,.25-.31,.4-.42,.55-.65,.87-1.25,1.05-2.25,.63-2.22-.93-3.84-2.49-4.88-4.66-.11-.23-.21-.47-.32-.72l-6.17,3.29c.62,.96,1.3,1.84,1.81,2.81,1.09,2.09,1.4,4.36,1.4,6.69,0,8.02,0,16.04,0,24.06v.54h23.29v-.57c0-7.76,0-15.52,0-23.29,0-.91,0-1.82,.09-2.72,.27-2.75,1.14-5.26,3.09-7.3,.04-.04,.06-.1,.1-.17l-6.23-3.32Zm7.33,4.35c-.49,.69-.99,1.28-1.36,1.94-1.11,1.93-1.46,4.05-1.47,6.25-.01,2.3,0,4.6,0,6.91,0,.12,0,.23,0,.4,.17-.07,.29-.12,.41-.17,2.54-1.23,5.09-2.47,7.63-3.7,.57-.28,.61-.41,.31-.99-1.74-3.37-3.49-6.74-5.23-10.12-.07-.13-.14-.26-.28-.52Zm-32.1,.09c-.06,.09-.1,.14-.13,.19-1.81,3.49-3.61,6.99-5.42,10.48-.22,.43-.16,.59,.3,.82,2.57,1.25,5.14,2.5,7.71,3.74,.12,.06,.24,.1,.39,.16,0-.13,.01-.22,.01-.31,0-2.36,.04-4.73-.02-7.09-.02-1.08-.15-2.18-.36-3.24-.36-1.8-1.14-3.41-2.49-4.75Zm4.48,34.54c-.3,1.55,.57,2.34,1.9,2.33,6.51-.04,13.03-.02,19.54-.02,1.35,0,2.09-1,1.71-2.31H30.91Zm10.4-36.9c-1.86-.84-3.32-2-4.04-3.93l-2.05,1.09c.82,2.21,2.26,3.79,4.43,4.68,.09,.04,.28,.02,.34-.05,.44-.57,.86-1.16,1.33-1.79Zm8.47-2.84l-2.06-1.09c-.7,1.97-2.21,3.1-4.01,3.94,.45,.61,.86,1.18,1.29,1.72,.07,.09,.32,.13,.44,.08,2.09-.91,3.52-2.45,4.34-4.65Zm-3.72-.94l-.1-.14c-2.31,.47-4.61,.48-6.97,.07,.38,.52,.74,1.07,1.24,1.41,2.26,1.55,2.25,1.56,4.49,.03,.52-.35,.89-.91,1.33-1.37Z"/></svg>