<?xml version="1.0" encoding="UTF-8"?><svg id="Layer_1" xmlns="http://www.w3.org/2000/svg" viewBox="0 0 85 85"><defs><style>.cls-1{fill:none;}</style></defs><path class="cls-1" d="M32.8,57.79c-.78-.45-1.27-1.29-1.27-2.19v-.84h-1.69v3.37h4.22c-.44,0-.87-.11-1.27-.34Z"/><path class="cls-1" d="M34.06,56.44c.47,0,.84-.38,.84-.84v-5.06c0-.47,.38-.84,.84-.84h.64c.77,0,1.49-.4,1.89-1.06v-2.1c-.4-.66-1.12-1.06-1.89-1.06h-1.14c-.54,0-1.06,.21-1.44,.6-.38,.38-.6,.9-.6,1.44v8.09c0,.47,.38,.84,.84,.84Z"/><path class="cls-1" d="M38.06,57.28c.3-.52,.3-1.17,0-1.69-.3-.52-.86-.84-1.46-.84v.84c0,.9-.48,1.74-1.27,2.19-.39,.23-.83,.34-1.27,.34h2.53c.6,0,1.16-.32,1.46-.84Z"/><path class="cls-1" d="M25.63,51.38c.22,0,.44,.09,.6,.25,.16,.16,.25,.37,.25,.6v5.91h1.69v-8.93c0-.54-.21-1.06-.6-1.44s-.9-.6-1.44-.6h-1.14c-.77,0-1.49,.4-1.89,1.06v2.1c.4,.66,1.12,1.06,1.89,1.06h.64Z"/><path class="cls-1" d="M61.55,44.63h-12.79c-.2,0-.36,.16-.36,.36v2.72c0,.16,.13,.29,.29,.29h12.91c.16,0,.29-.13,.29-.29v-2.72c0-.2-.16-.36-.36-.36Zm-8.92,2.53h-2.53v-1.69h2.53v1.69Zm7.59,0h-2.53v-1.69h2.53v1.69Z"/><path class="cls-1" d="M48.7,49.69c-.1,0-.2,0-.29-.02v16.54c0,.2,.16,.36,.36,.36h12.79c.2,0,.36-.16,.36-.36v-16.54c-.1,.02-.2,.02-.29,.02h-12.91Z"/><rect class="cls-1" x="39.97" y="60.66" width="6.75" height="1.69"/><path class="cls-1" d="M24.78,59.82c-.59,0-1.17-.16-1.69-.45v5.52c0,.45,.18,.87,.49,1.19,.31,.31,.74,.49,1.19,.49h11.83c.45,0,.87-.18,1.19-.49,.31-.31,.49-.74,.49-1.19v-5.52c-.51,.3-1.09,.45-1.69,.45h-11.81Z"/><path class="cls-1" d="M24.78,58.13v-3.37c-.6,0-1.16,.32-1.46,.84-.3,.52-.3,1.17,0,1.69,.3,.52,.86,.84,1.46,.84Z"/><rect x="50.09" y="45.47" width="2.53" height="1.69"/><rect x="57.69" y="45.47" width="2.53" height="1.69"/><path d="M30.74,40.13h13.48c.29-.58,1.07-1.74,1.1-1.81,.98-.47,2.05-.72,3.13-.72h.52c.48,0,.94-.19,1.28-.53s.53-.8,.53-1.28v-4.81c0-.48-.19-.94-.53-1.28-.34-.34-.8-.53-1.28-.53h-.52c-1.08,0-2.16-.25-3.13-.72-.29-.55-.72-1-1.25-1.32-.53-.32-1.14-.49-1.75-.49h-1.65v-1.73c0-.44-.17-.85-.48-1.16-.31-.31-.73-.48-1.16-.48h-3.46c-.44,0-.85,.17-1.16,.48s-.48,.73-.48,1.16v1.73h-1.65c-.62,0-1.22,.17-1.75,.49-.53,.32-.96,.78-1.25,1.32-.98,.47-2.05,.72-3.13,.72h-2.54c-.54,0-1.05,.21-1.43,.59-.38,.38-.59,.89-.59,1.43v4.39c0,.54,.21,1.05,.59,1.43,.38,.38,.89,.59,1.43,.59h2.54c1.08,0,3.2,.85,3.24,.91-.06,.03,1.13,1.34,1.38,1.62Zm14.98-9.71c.88,.29,1.8,.43,2.73,.43h.52c.07,0,.13,.06,.13,.13v4.81c0,.07-.06,.13-.13,.13h-.52c-.93,0-1.85,.15-2.73,.43v-5.93Zm-10.12-5.47h3.37v1.69h-3.37v-1.69Zm-5.06,5.1c0-.46,.18-.89,.51-1.22,.32-.32,.76-.5,1.22-.51h10.05c.46,0,.89,.18,1.22,.51,.32,.32,.5,.76,.51,1.22h0v6.68c0,.46-.18,.89-.51,1.22s-.76,.5-1.22,.51h-10.05c-.46,0-.89-.18-1.22-.51-.32-.32-.5-.76-.51-1.22v-6.68Zm-1.69,6.3c-.88-.29-1.8-.43-2.73-.43h-2.54c-.18,0-.33-.15-.33-.33v-4.39c0-.18,.15-.33,.33-.33h2.54c.93,0,1.85-.15,2.73-.43v5.93Z"/><path d="M40.06,37.36l1.19-1.19-2.78-2.78,1.93-1.93-1.19-1.19-2.53,2.53c-.16,.16-.25,.37-.25,.6s.09,.44,.25,.6l3.37,3.37Z"/><path d="M63.11,43.67c-.31-.37-.74-.61-1.21-.7h0V20.85c0-.85-.34-1.67-.94-2.27-.6-.6-1.42-.94-2.27-.94h-2.87v-.04h-.95c0-.47-.38-.84-.84-.84h-6.75c-.22,0-.44,.09-.6,.25-.16,.16-.25,.37-.25,.6h-2.53c-.22,0-.44,.09-.6,.25-.16,.16-.25,.37-.25,.6v3.37c0,.22,.09,.44,.25,.6,.16,.16,.37,.25,.6,.25h2.53c0,.22,.09,.44,.25,.6,.16,.16,.37,.25,.6,.25h6.75c.22,0,.44-.09,.6-.25,.15-.15,.23-.35,.24-.56h1.98v20.25h-8.08c-.54,0-1.06,.22-1.44,.6-.38,.38-.6,.9-.6,1.44v13.99h-6.75v-2.53c0-.89-.36-1.75-.99-2.39-.63-.63-1.49-.99-2.39-.99v-1.69c.69-.03,1.36-.25,1.94-.63,.58-.38,1.04-.9,1.35-1.52,.06-.12,.09-.25,.09-.38v-2.53c0-.13-.03-.26-.09-.38-.32-.65-.82-1.19-1.43-1.58-.62-.38-1.33-.58-2.05-.58h-1.14c-.99,0-1.93,.39-2.63,1.09-.7,.7-1.09,1.65-1.09,2.63v5.56h-1.69v-3.87c0-.99-.39-1.94-1.09-2.63-.7-.7-1.65-1.09-2.63-1.09h-1.14c-.72,0-1.43,.2-2.05,.58-.62,.38-1.11,.93-1.43,1.58-.06,.12-.09,.25-.09,.38v2.53c0,.13,.03,.26,.09,.38,.31,.62,.77,1.14,1.35,1.52s1.25,.59,1.94,.63h0c-.89,0-1.75,.36-2.39,.99-.63,.63-.99,1.49-.99,2.39v8.45c0,.89,.36,1.75,.99,2.38,.63,.63,1.49,.99,2.38,.99h11.83c.89,0,1.75-.36,2.38-.99,.63-.63,.99-1.49,.99-2.38v-.85h6.75v2.18c0,.54,.22,1.06,.6,1.44s.9,.6,1.44,.6h12.79c.54,0,1.06-.22,1.44-.6,.38-.38,.6-.9,.6-1.44v-21.22c0-.48-.17-.94-.48-1.31Zm-16.68-22.71h-1.69v-1.69h1.69v1.69Zm6.75,.84h-5.06v-3.37h5.06v3.37Zm-19.96,25.7c0-.54,.21-1.06,.6-1.44,.38-.38,.9-.6,1.44-.6h1.14c.77,0,1.49,.4,1.89,1.06v2.1c-.4,.66-1.12,1.06-1.89,1.06h-.64c-.47,0-.84,.38-.84,.84v5.06c0,.47-.38,.84-.84,.84s-.84-.38-.84-.84v-8.09Zm-3.37,7.24h1.69v.84c0,.9,.48,1.74,1.27,2.19,.39,.23,.83,.34,1.27,.34s.87-.11,1.27-.34c.78-.45,1.27-1.29,1.27-2.19v-.84c.6,0,1.16,.32,1.46,.84,.3,.52,.3,1.17,0,1.69-.3,.52-.86,.84-1.46,.84h-6.75v-3.37Zm-6.75-4.43v-2.1c.4-.66,1.12-1.06,1.89-1.06h1.14c.54,0,1.06,.21,1.44,.6s.6,.9,.6,1.44v8.93h-1.69v-5.91c0-.22-.09-.44-.25-.6-.16-.16-.37-.25-.6-.25h-.64c-.77,0-1.49-.4-1.89-1.06Zm.23,5.28c.3-.52,.86-.84,1.46-.84v3.37c-.6,0-1.16-.32-1.46-.84-.3-.52-.3-1.17,0-1.69Zm14.96,9.29c0,.45-.18,.87-.49,1.19-.31,.31-.74,.49-1.19,.49h-11.83c-.45,0-.87-.18-1.19-.49-.31-.31-.49-.74-.49-1.19v-5.52c.51,.3,1.09,.45,1.69,.45h11.81c.59,0,1.17-.16,1.69-.45v5.52Zm8.44-2.54h-6.75v-1.69h6.75v1.69Zm9.1-41.34v-.04h-.95v-1.69h.1s0,.03,0,.04h3.71c.41,0,.8,.16,1.08,.45,.29,.29,.45,.68,.45,1.08v22.09h-1.69V21.85c0-.22-.09-.44-.25-.6s-.37-.25-.6-.25h-1.87Zm6.08,45.2c0,.2-.16,.36-.36,.36h-12.79c-.2,0-.36-.16-.36-.36v-16.54c.1,.02,.2,.02,.29,.02h12.91c.1,0,.2,0,.29-.02v16.54Zm0-18.5c0,.16-.13,.29-.29,.29h-12.91c-.16,0-.29-.13-.29-.29v-2.72c0-.2,.16-.36,.36-.36h12.79c.2,0,.36,.16,.36,.36v2.72Z"/></svg>