<?xml version="1.0" encoding="UTF-8"?><svg id="Layer_1" xmlns="http://www.w3.org/2000/svg" viewBox="0 0 85 85"><defs><style>.cls-1{fill:none;stroke-linecap:round;stroke-width:1.5px;}.cls-1,.cls-2{stroke:#231f20;stroke-miterlimit:10;}.cls-3,.cls-2{fill:#231f20;}.cls-2{stroke-width:.5px;}</style></defs><g><path class="cls-3" d="M37,46.18l-1.11-2.78c.24-.12,.4-.35,.4-.63v-2.91c0-1.14-.93-2.07-2.07-2.07h-4.4c-1.14,0-2.07,.93-2.07,2.07v2.91c0,.28,.17,.52,.4,.63l-1.11,2.78c-.95,2.37-1.43,4.86-1.43,7.41v11.86c0,1.22,1,2.22,2.22,2.22,.59,0,1.15-.23,1.57-.65l.51-.51c.45,.72,1.24,1.16,2.1,1.16s1.65-.44,2.1-1.16l.51,.51c.42,.42,.98,.65,1.57,.65,1.22,0,2.22-1,2.22-2.22v-11.86c0-2.55-.48-5.04-1.43-7.41Zm-2.13-4.12h-5.7v-2.2c0-.36,.29-.65,.65-.65h4.4c.36,0,.65,.29,.65,.65v2.2Zm-.48,1.42l1.29,3.23c.88,2.2,1.33,4.51,1.33,6.88v11.86c0,.44-.36,.8-.8,.8-.21,0-.42-.08-.57-.23l-1.33-1.33c-.2-.2-.51-.26-.77-.15-.27,.11-.44,.37-.44,.66,0,.59-.48,1.07-1.07,1.07s-1.07-.48-1.07-1.07c0-.29-.17-.55-.44-.66-.27-.11-.57-.05-.77,.15l-1.33,1.34c-.15,.15-.36,.23-.57,.23-.44,0-.8-.36-.8-.8v-11.86c0-2.37,.45-4.68,1.33-6.88l1.29-3.23h4.73Z"/><path class="cls-3" d="M35.26,59.14c-.39,0-.71,.32-.71,.71v2.85c0,.39,.32,.71,.71,.71s.71-.32,.71-.71v-2.85c0-.39-.32-.71-.71-.71Z"/><path class="cls-3" d="M34.55,53.89v3.11c0,.39,.32,.71,.71,.71s.71-.32,.71-.71v-3.11c0-2.02-.78-5.37-1.47-7.12-.07-.18-.21-.32-.38-.39-.17-.07-.37-.07-.54,0-.18,.07-.31,.2-.39,.38s-.08,.37,0,.54c.65,1.62,1.37,4.78,1.37,6.59Z"/></g><g><path class="cls-3" d="M57.46,65.32c.33,0,.6-.27,.6-.6v-1.4c0-.33-.27-.6-.6-.6s-.6,.27-.6,.6v1.4c0,.33,.27,.6,.6,.6Z"/><path class="cls-3" d="M57.46,62.53c.33,0,.6-.27,.6-.6v-5.59c0-.33-.27-.61-.6-.61s-.6,.27-.6,.61v5.59c0,.33,.27,.6,.6,.6Z"/><path class="cls-3" d="M54.15,51.57c-.59,0-5.78,.06-5.78,2.1v.88c-.16-.02-.32-.04-.47-.04-2.17,0-3.94,2.26-3.94,5.04,0,2.98,2.02,5.35,4.41,5.01v.87c0,.31,.12,.6,.37,.85,.75,.76,2.87,1.25,5.4,1.25,.59,0,5.78-.06,5.78-2.1v-11.76c0-2.04-5.19-2.1-5.78-2.1Zm-4.91,11.86c-.24-.18-.55-.24-.84-.16-.16,.05-.33,.07-.51,.07-1.48,0-2.68-1.7-2.68-3.78,0-2.31,1.47-4.14,3.15-3.72v.45c0,.35,.28,.63,.63,.63s.63-.28,.63-.63v-1.21c1.5,.64,3.82,.69,4.52,.69s3.02-.05,4.52-.69v10.32c-.14,.2-1.56,.88-4.52,.88-2.75,0-4.22-.59-4.5-.88h-.01v-1.18c0-.31-.14-.6-.39-.78Zm.42-9.75c.25-.23,1.67-.85,4.49-.85s4.24,.61,4.49,.83c-.25,.23-1.67,.85-4.49,.85s-4.24-.61-4.49-.83Z"/><path class="cls-3" d="M49.64,58.38c0-.4-.17-.77-.47-1.02-.35-.29-.75-.45-1.17-.45-1.21,0-2.19,1.31-2.19,2.92s.98,2.92,2.19,2.92c.19,0,.37-.03,.55-.09,.05,.26,.27,.46,.55,.46,.3,0,.55-.25,.55-.55v-4.18Zm-1.11,0v2.9c0,.07-.03,.13-.08,.17-.15,.12-.31,.19-.46,.19-.58,0-1.08-.85-1.08-1.81s.51-1.81,1.08-1.81c.16,0,.32,.06,.46,.19,.05,.04,.08,.1,.07,.17Z"/></g><g><g><path class="cls-3" d="M23.24,20.14c-.39,.07-.65,.44-.58,.82l2.39,13.83c.06,.35,.36,.59,.7,.59,.04,0,.08,0,.12-.01,.39-.07,.65-.44,.58-.82l-2.39-13.83c-.07-.39-.43-.65-.82-.58Z"/><path class="cls-3" d="M66.44,20.14c-.4-.07-.76,.19-.82,.58l-2.39,13.83c-.07,.39,.19,.76,.58,.82,.04,0,.08,.01,.12,.01,.34,0,.64-.24,.7-.59l2.39-13.83c.07-.39-.19-.76-.58-.82Z"/></g><path class="cls-3" d="M68.85,20.61c-4.63-.93-10.72-2.03-16.81-2.4-.02,0-.03,0-.04,0-.04,0-.07,.01-.11,.02-.08,.01-.15,.04-.22,.07-.02,.01-.04,0-.06,.02-4.55,3.04-8.98,3.03-13.53,0-.02-.02-.05-.01-.08-.03-.07-.03-.14-.06-.21-.07-.04,0-.07-.02-.11-.02-.01,0-.03,0-.04,0-6.09,.37-12.18,1.47-16.81,2.4-.38,.08-.63,.44-.56,.82l2.39,13.84c.03,.19,.14,.36,.3,.47,.16,.11,.35,.15,.54,.11l6.82-1.36c.43-.09,.88,.02,1.23,.28,.23-.42,.55-.78,.92-1.09-.69-.54-1.57-.76-2.43-.59l-6.1,1.22-2.14-12.44c4.3-.85,9.75-1.81,15.21-2.19,.39,3.98,3.75,7.11,7.83,7.11s7.45-3.12,7.83-7.11c5.47,.38,10.91,1.34,15.21,2.19l-2.14,12.44-6.1-1.22c-.88-.18-1.79,.05-2.48,.62-.7,.57-1.1,1.41-1.1,2.31v14.78c.19-.02,.37-.06,.57-.06,.28,0,.57,.04,.86,.11v-14.83c0-.47,.21-.91,.57-1.21,.36-.3,.84-.42,1.3-.32l6.82,1.36c.19,.04,.38,0,.54-.11,.16-.11,.27-.28,.3-.47l2.39-13.84c.07-.38-.18-.74-.56-.82Zm-24.01,4.76c-3.09,0-5.68-2.19-6.31-5.09,4.19,2.32,8.42,2.32,12.61,0-.62,2.91-3.21,5.09-6.3,5.09Z"/></g><path class="cls-2" d="M31.86,36.68c-.23,0-.42-.15-.42-.34v-2.28c0-.19,.19-.34,.42-.34s.42,.15,.42,.34v2.28c0,.19-.19,.34-.42,.34Z"/><line class="cls-1" x1="40.04" y1="65.59" x2="45.22" y2="65.59"/></svg>