<?xml version="1.0" encoding="UTF-8"?><svg id="Layer_1" xmlns="http://www.w3.org/2000/svg" viewBox="0 0 85 85"><path d="M61.26,43.65l-3.37-3.61,1.05-4.82c.11-.49-.18-.98-.66-1.12l-4.73-1.43-1.5-4.71c-.15-.48-.64-.75-1.13-.64l-4.81,1.12-3.61-3.29c-.23-.21-.49-.29-.74-.27h0c-.25,.02-.48,.14-.67,.31l-3.54,3.31-4.83-1.05c-.49-.11-.97,.18-1.11,.66l-1.44,4.72-4.7,1.51c-.47,.15-.76,.64-.64,1.12l1.12,4.81-3.32,3.66c-.33,.37-.33,.93,0,1.29l3.37,3.6-1.05,4.83c-.11,.48,.18,.97,.66,1.11l4.73,1.44,1.5,4.7c.1,.32,.36,.56,.69,.63v.03c.52-.13,1.91-.37,1.91-.37l3.35-.78,3.65,3.32c.37,.33,.93,.33,1.29,0l3.61-3.38,2.77,.6c.95,.04,2.5,.44,2.5,.44,.32-.08,.58-.32,.67-.64l1.44-4.73,4.7-1.51c.47-.15,.76-.64,.64-1.12l-1.13-4.81,3.33-3.66c.33-.37,.33-.93,0-1.29Zm-5.06,4.03c-.21,.23-.3,.56-.23,.86l1.04,4.43-4.34,1.39c-.3,.1-.54,.33-.63,.63l-1.32,4.36-4.46-.97c-.31-.07-.63,.02-.86,.24l-3.33,3.12-3.37-3.07c-.23-.21-.55-.3-.86-.23l-4.44,1.03-1.39-4.35c-.09-.3-.33-.53-.63-.62l-4.36-1.32,.97-4.46c.07-.31-.02-.62-.24-.85l-3.12-3.33,3.07-3.37c.21-.23,.29-.55,.22-.86l-1.03-4.44,4.34-1.39c.3-.1,.53-.33,.62-.63l1.33-4.36,4.45,.97c.3,.07,.62-.02,.85-.23,1.12-1.03,3.34-3.11,3.34-3.11h0l3.37,3.07c.23,.21,.55,.29,.86,.22l4.44-1.04,1.39,4.35c.09,.3,.33,.53,.62,.62l4.36,1.33-.97,4.45c-.07,.31,.03,.62,.24,.85l3.12,3.33-3.07,3.37Z"/><path d="M42.08,32.4c-6.83,0-12.39,5.55-12.39,12.38s5.56,12.39,12.39,12.39,12.39-5.56,12.39-12.39-5.56-12.38-12.39-12.38Zm0,22.87c-5.8,0-10.48-4.68-10.48-10.48,0-5.8,4.68-10.48,10.48-10.48,5.8,0,10.48,4.68,10.48,10.48s-4.68,10.48-10.48,10.48Z"/><path d="M48.56,40.35c-1.16,.8-3.48,2.41-3.48,2.41l-2.32-3.62c-.19-.3-.49-.45-.8-.45-.31,0-.61,.15-.8,.45l-2.32,3.62-3.48-2.41c-.69-.48-1.62,.12-1.48,.95l1.43,8.05c.08,.45,.47,.79,.93,.79h11.44c.46,0,.86-.33,.94-.79l1.43-8.05c.15-.83-.78-1.43-1.48-.95Zm-1.69,7.88h-9.84l-.89-5.01,2.41,1.66c.44,.31,1.05,.19,1.34-.27l2.06-3.2,2.06,3.2c.29,.45,.9,.57,1.34,.27l2.41-1.67-.89,5.02Z"/></svg>