<?xml version="1.0" encoding="UTF-8"?><svg id="Layer_1" xmlns="http://www.w3.org/2000/svg" viewBox="0 0 85 85"><path d="M50.58,68.69h-16.72c-.62,0-1.11-.5-1.11-1.11v-1.67c0-.31-.25-.56-.56-.56h-3.33c-.57,0-1.13-.18-1.6-.5l-9.39-4.41c-.07-.04-.15-.08-.21-.13-.95-.74-1.32-1.96-.93-3.1,.39-1.14,1.43-1.88,2.64-1.88h45.7c1.21,0,2.24,.74,2.64,1.88,.39,1.14,.03,2.36-.93,3.1-.07,.05-.14,.09-.21,.13l-9.39,4.41c-.47,.33-1.03,.5-1.6,.5h-3.33c-.31,0-.56,.25-.56,.56v1.67c0,.62-.5,1.11-1.11,1.11h0Zm-15.6-2.23h14.49v-.56c0-1.54,1.25-2.79,2.79-2.79h3.33c.12,0,.24-.04,.34-.12,.07-.05,.14-.09,.21-.13l9.35-4.39c.2-.21,.15-.45,.11-.56-.04-.11-.17-.38-.53-.38H19.37c-.36,0-.49,.26-.53,.38-.04,.1-.09,.35,.11,.56l9.35,4.39c.07,.04,.15,.08,.21,.13,.1,.08,.22,.12,.34,.12h3.33c1.54,0,2.79,1.25,2.79,2.79v.56h0Z"/><path d="M59.45,41.39c-.17,0-.33-.04-.48-.11-.31-.15-.53-.43-.6-.76l-.48-2.09-1.93-.93c-.31-.15-.53-.43-.6-.76-.08-.33,0-.68,.22-.94l1.34-1.68-.48-2.09c-.08-.33,0-.68,.22-.94,.21-.27,.53-.42,.87-.42h2.15l1.34-1.68c.21-.27,.53-.42,.87-.42s.66,.15,.87,.42l1.34,1.68h2.15c.34,0,.66,.15,.87,.42,.21,.27,.29,.61,.22,.94l-.48,2.09,1.34,1.68c.21,.27,.29,.61,.22,.94-.08,.33-.3,.61-.6,.76l-1.93,.93-.48,2.09c-.08,.33-.3,.61-.6,.76s-.66,.15-.97,0l-1.93-.93-1.93,.93c-.15,.07-.32,.11-.49,.11h0Zm-1.27-5.29l1.16,.56c.31,.15,.53,.43,.6,.76l.29,1.25,1.16-.56c.31-.15,.66-.15,.97,0l1.16,.56,.29-1.25c.08-.33,.3-.61,.6-.76l1.16-.56-.8-1.01c-.21-.27-.29-.61-.22-.94l.29-1.25h-1.29c-.34,0-.66-.15-.87-.42l-.8-1.01-.8,1.01c-.21,.27-.53,.42-.87,.42h-1.29l.29,1.25c.08,.33,0,.68-.22,.94l-.8,1.01Z"/><path d="M35.03,33.03c-.17,0-.33-.04-.48-.11l-1.93-.93-1.93,.93c-.31,.15-.66,.15-.97,0s-.53-.43-.6-.76l-.48-2.09-1.93-.93c-.31-.15-.53-.43-.6-.76-.08-.33,0-.68,.22-.94l1.34-1.68-.48-2.09c-.08-.33,0-.68,.22-.94,.21-.27,.53-.42,.87-.42h2.15l1.34-1.68c.21-.27,.53-.42,.87-.42s.66,.15,.87,.42l1.34,1.68h2.15c.34,0,.66,.15,.87,.42,.21,.27,.29,.61,.22,.94l-.48,2.09,1.34,1.68c.21,.27,.29,.61,.22,.94-.08,.33-.3,.61-.6,.76l-1.93,.93-.48,2.09c-.08,.33-.3,.61-.6,.76-.15,.07-.32,.11-.49,.11h0Zm-2.42-3.39c.17,0,.33,.04,.48,.11l1.16,.56,.29-1.25c.08-.33,.3-.61,.6-.76l1.16-.56-.8-1.01c-.21-.27-.29-.61-.22-.94l.29-1.25h-1.29c-.34,0-.66-.15-.87-.42l-.8-1.01-.8,1.01c-.21,.27-.53,.42-.87,.42h-1.29l.29,1.25c.08,.33,0,.68-.22,.94l-.8,1.01,1.16,.56c.31,.15,.53,.43,.6,.76l.29,1.25,1.16-.56c.15-.07,.32-.11,.48-.11h0Z"/><path d="M33.31,53.09c-.62,0-1.11-.5-1.11-1.11,0-1.84-1.5-3.34-3.34-3.34s-3.34,1.5-3.34,3.34c0,.62-.5,1.11-1.11,1.11s-1.11-.5-1.11-1.11c0-3.07,2.5-5.57,5.57-5.57s5.57,2.5,5.57,5.57c0,.62-.5,1.11-1.11,1.11Z"/><path d="M42.22,53.09c-.62,0-1.11-.5-1.11-1.11,0-1.84-1.5-3.34-3.34-3.34s-3.34,1.5-3.34,3.34c0,.62-.5,1.11-1.11,1.11s-1.11-.5-1.11-1.11c0-3.07,2.5-5.57,5.57-5.57s5.57,2.5,5.57,5.57c0,.62-.5,1.11-1.11,1.11Z"/><path d="M51.14,53.09c-.62,0-1.11-.5-1.11-1.11,0-1.84-1.5-3.34-3.34-3.34s-3.34,1.5-3.34,3.34c0,.62-.5,1.11-1.11,1.11s-1.11-.5-1.11-1.11c0-3.07,2.5-5.57,5.57-5.57s5.57,2.5,5.57,5.57c0,.62-.5,1.11-1.11,1.11Z"/><path d="M38.32,48.63c-.62,0-1.11-.5-1.11-1.11,0-1.84-1.5-3.34-3.34-3.34s-3.34,1.5-3.34,3.34c0,.62-.5,1.11-1.11,1.11s-1.11-.5-1.11-1.11c0-3.07,2.5-5.57,5.57-5.57s5.57,2.5,5.57,5.57c0,.62-.5,1.11-1.11,1.11Z"/><path d="M47.24,48.63c-.62,0-1.11-.5-1.11-1.11,0-1.84-1.5-3.34-3.34-3.34s-3.34,1.5-3.34,3.34c0,.62-.5,1.11-1.11,1.11s-1.11-.5-1.11-1.11c0-3.07,2.5-5.57,5.57-5.57s5.57,2.5,5.57,5.57c0,.62-.5,1.11-1.11,1.11Z"/><path d="M42.78,44.17c-.62,0-1.11-.5-1.11-1.11,0-1.84-1.5-3.34-3.34-3.34s-3.34,1.5-3.34,3.34c0,.62-.5,1.11-1.11,1.11s-1.11-.5-1.11-1.11c0-3.07,2.5-5.57,5.57-5.57s5.57,2.5,5.57,5.57c0,.62-.5,1.11-1.11,1.11Z"/><path d="M51.7,44.17c-.62,0-1.11-.5-1.11-1.11,0-1.84-1.5-3.34-3.34-3.34s-3.34,1.5-3.34,3.34c0,.62-.5,1.11-1.11,1.11s-1.11-.5-1.11-1.11c0-3.07,2.5-5.57,5.57-5.57s5.57,2.5,5.57,5.57c0,.62-.5,1.11-1.11,1.11Z"/><path d="M47.24,39.71c-.62,0-1.11-.5-1.11-1.11,0-1.84-1.5-3.34-3.34-3.34s-3.34,1.5-3.34,3.34c0,.62-.5,1.11-1.11,1.11s-1.11-.5-1.11-1.11c0-3.07,2.5-5.57,5.57-5.57s5.57,2.5,5.57,5.57c0,.62-.5,1.11-1.11,1.11Z"/><path d="M56.16,48.63c-.62,0-1.11-.5-1.11-1.11,0-1.84-1.5-3.34-3.34-3.34s-3.34,1.5-3.34,3.34c0,.62-.5,1.11-1.11,1.11s-1.11-.5-1.11-1.11c0-3.07,2.5-5.57,5.57-5.57s5.57,2.5,5.57,5.57c0,.62-.5,1.11-1.11,1.11Z"/><path d="M60.06,53.09c-.62,0-1.11-.5-1.11-1.11,0-1.84-1.5-3.34-3.34-3.34s-3.34,1.5-3.34,3.34c0,.62-.5,1.11-1.11,1.11s-1.11-.5-1.11-1.11c0-3.07,2.5-5.57,5.57-5.57s5.57,2.5,5.57,5.57c0,.62-.5,1.11-1.11,1.11Z"/><path d="M63.96,57.55H20.49c-.62,0-1.11-.5-1.11-1.11,0-3.07,2.5-5.57,5.57-5.57H59.5c3.05,0,5.53,2.46,5.57,5.49,0,.03,0,.05,0,.08,0,.62-.5,1.11-1.11,1.11h0Zm-42.17-2.23H62.65c-.46-1.3-1.7-2.23-3.15-2.23H24.95c-1.45,0-2.69,.93-3.15,2.23h0Z"/><path d="M21.6,39.71c-1.84,0-3.34-1.5-3.34-3.34s1.5-3.34,3.34-3.34,3.34,1.5,3.34,3.34-1.5,3.34-3.34,3.34Zm0-4.46c-.61,0-1.11,.5-1.11,1.11s.5,1.11,1.11,1.11,1.11-.5,1.11-1.11-.5-1.11-1.11-1.11Z"/><path d="M57.27,25.22c-2.46,0-4.46-2-4.46-4.46s2-4.46,4.46-4.46,4.46,2,4.46,4.46-2,4.46-4.46,4.46Zm0-6.69c-1.23,0-2.23,1-2.23,2.23s1,2.23,2.23,2.23,2.23-1,2.23-2.23-1-2.23-2.23-2.23Z"/><path d="M33.86,47.52c-.29,0-.58-.12-.79-.33-.21-.21-.33-.49-.33-.79s.12-.58,.33-.79,.49-.33,.79-.33,.58,.12,.79,.33c.21,.21,.33,.49,.33,.79s-.12,.58-.33,.79c-.21,.21-.49,.33-.79,.33Z"/><path d="M42.78,38.6c-.29,0-.58-.12-.79-.33-.21-.21-.33-.49-.33-.79s.12-.58,.33-.79,.49-.33,.79-.33,.58,.12,.79,.33,.33,.49,.33,.79-.12,.58-.33,.79c-.21,.21-.49,.33-.79,.33Z"/><path d="M42.78,47.52c-.29,0-.58-.12-.79-.33-.21-.21-.33-.49-.33-.79s.12-.58,.33-.79,.49-.33,.79-.33,.58,.12,.79,.33c.21,.21,.33,.49,.33,.79s-.12,.58-.33,.79c-.21,.21-.49,.33-.79,.33Z"/><path d="M47.24,43.06c-.29,0-.58-.12-.79-.33-.21-.21-.33-.49-.33-.79s.12-.58,.33-.79,.49-.33,.79-.33,.58,.12,.79,.33c.21,.21,.33,.49,.33,.79s-.12,.58-.33,.79c-.21,.21-.49,.33-.79,.33Z"/><path d="M63.96,68.69H20.49c-.62,0-1.11-.5-1.11-1.11s.5-1.11,1.11-1.11H63.96c.62,0,1.11,.5,1.11,1.11s-.5,1.11-1.11,1.11Z"/><path d="M52.26,65.35h-11.7c-.62,0-1.11-.5-1.11-1.11s.5-1.11,1.11-1.11h11.7c.62,0,1.11,.5,1.11,1.11s-.5,1.11-1.11,1.11Z"/></svg>