<?xml version="1.0" encoding="UTF-8"?><svg id="Layer_1" xmlns="http://www.w3.org/2000/svg" viewBox="0 0 85 85"><defs><style>.cls-1{fill:#141824;}</style></defs><path class="cls-1" d="M52.77,45.03l2.72-5.33h0l6.05-11.89-1.75-.89-8.79,17.26,1.77,.86Zm-.76,1.5l-1.76-.85c-.01,.88-.01,1.65,0,2.3,.5-.39,1.08-.86,1.74-1.4l.03-.05Zm5.16-6.43v21.47c0,1.7-1.38,3.09-3.09,3.09H27.15c-1.7,0-3.09-1.38-3.09-3.09v-2.79l-1.39,.02c-.46,0-.85-.37-.85-.83s.37-.85,.83-.85l1.41-.02v-4.38h-1.45c-.46,0-.84-.38-.84-.84s.38-.84,.84-.84h1.45v-4.49h-1.45c-.46,0-.84-.38-.84-.84s.38-.84,.84-.84h1.45v-4.49h-1.45c-.46,0-.84-.38-.84-.84s.38-.84,.84-.84h1.45v-4.49h-1.45c-.46,0-.84-.38-.84-.84s.38-.84,.84-.84h1.45v-4.49h-1.45c-.46,0-.84-.38-.84-.84s.38-.84,.84-.84h1.45v-2.93c0-1.7,1.38-3.09,3.09-3.09h26.93c1.7,0,3.09,1.38,3.09,3.09v4.94l1.13-2.21c.42-.83,1.44-1.16,2.26-.74l1.75,.89c.83,.42,1.16,1.44,.74,2.26l-5.87,11.53Zm-1.68,3.3l-2.01,3.94c-.11,.21-.25,.39-.43,.54-2.6,2.14-4.01,3.15-4.22,3.04-.21-.11-.3-1.87-.26-5.29,0-.26,.07-.51,.18-.74l6.74-13.22v-8.25c0-.77-.63-1.4-1.4-1.4h-21.88V62.98h21.88c.77,0,1.4-.63,1.4-1.4v-18.17Zm-29.74,15.35v2.81c0,.77,.63,1.4,1.4,1.4h3.37V22.02h-3.37c-.77,0-1.4,.63-1.4,1.4v2.93h1.77c.46,0,.84,.38,.84,.84s-.38,.84-.84,.84h-1.77v4.49h1.77c.46,0,.84,.38,.84,.84s-.38,.84-.84,.84h-1.77v4.49h1.77c.46,0,.84,.38,.84,.84s-.38,.84-.84,.84h-1.77v4.49h1.77c.46,0,.84,.38,.84,.84s-.38,.84-.84,.84h-1.77v4.49h1.77c.46,0,.84,.38,.84,.84s-.38,.84-.84,.84h-1.77v4.36l1.81-.02c.46,0,.85,.37,.85,.83,0,.46-.37,.85-.83,.85l-1.83,.02Zm18.17-9.53c.34,0,.62,.38,.62,.84s-.28,.84-.62,.84h-8.29c-.34,0-.62-.38-.62-.84s.28-.84,.62-.84h8.29Zm2.1-5.05c.42,0,.77,.38,.77,.84s-.34,.84-.77,.84h-10.25c-.42,0-.77-.38-.77-.84s.34-.84,.77-.84h10.25Zm2.1-5.05c.5,0,.91,.38,.91,.84s-.41,.84-.91,.84h-12.2c-.51,0-.91-.38-.91-.84s.41-.84,.91-.84h12.2Zm2.1-5.05c.59,0,1.06,.38,1.06,.84s-.48,.84-1.06,.84h-14.15c-.59,0-1.06-.38-1.06-.84s.48-.84,1.06-.84h14.15Z"/></svg>