<?xml version="1.0" encoding="UTF-8"?><svg id="Layer_1" xmlns="http://www.w3.org/2000/svg" viewBox="0 0 85 85"><defs><style>.cls-1{fill:#141824;}</style></defs><g><path class="cls-1" d="M67.55,36.31h-16.01c-.38,0-.69-.31-.69-.69v-12.97c0-.38,.31-.69,.69-.69h16.01c.38,0,.69,.31,.69,.69v12.97c0,.38-.31,.69-.69,.69h0Zm-15.33-1.38h14.64v-11.6h-14.64v11.6Z"/><path class="cls-1" d="M51.54,33.55c-.17,0-.35-.06-.48-.2-.27-.26-.28-.7-.01-.97l4.48-4.6c.13-.13,.31-.21,.49-.21s.36,.07,.49,.21l3.97,4.08c.26,.27,.26,.71-.01,.97-.27,.26-.71,.26-.97-.01l-3.48-3.57-3.99,4.09c-.13,.14-.31,.21-.49,.21h0Z"/><path class="cls-1" d="M67.55,34.22c-.18,0-.36-.07-.49-.21l-3.87-3.97-3.53,3.62c-.26,.27-.7,.28-.97,.01-.27-.26-.28-.7-.01-.97l4.02-4.13c.13-.13,.31-.21,.49-.21s.36,.07,.49,.21l4.36,4.48c.26,.27,.26,.71-.01,.97-.13,.13-.31,.2-.48,.2h0Z"/><path class="cls-1" d="M60.07,28.46c-1.09,0-1.97-.89-1.97-1.97s.89-1.97,1.97-1.97,1.97,.89,1.97,1.97-.89,1.97-1.97,1.97Zm0-2.57c-.33,0-.6,.27-.6,.6s.27,.6,.6,.6,.6-.27,.6-.6c0-.33-.27-.6-.6-.6Z"/><path class="cls-1" d="M62.19,23.34c-.23,0-.45-.11-.58-.32l-2.07-3.28-2.07,3.28c-.2,.32-.63,.42-.95,.22-.32-.2-.42-.63-.22-.95l2.65-4.21c.13-.2,.35-.32,.58-.32s.46,.12,.58,.32l2.65,4.21c.2,.32,.11,.75-.22,.95-.11,.07-.24,.11-.37,.11h0Z"/></g><path d="M23.37,62.27c-.92-2.11-.93-4.18-.24-6.27,.13-.38,.24-.8,.48-1.11,1.05-1.36,1.15-2.91,1.09-4.53-.06-1.43,.09-1.54,1.55-1.54,1.04,0,2.07-.01,3.11,0,.79,.01,1.04,.27,1.06,1.05,.01,.35,.03,.71,0,1.06-.11,1.36,.24,2.54,.94,3.74,1.39,2.39,1.47,4.93,.42,7.55h4.42c0-.27,0-.54,0-.8,0-2.53,0-5.06,0-7.59,0-1.68,.95-2.63,2.63-2.63,1.31,0,2.63,0,3.94,0,1.63,0,2.58,.96,2.59,2.6,.01,2.53,0,5.06,0,7.59,0,.27,0,.54,0,.88,1.5,0,2.91,0,4.32,0,1.05,0,1.25,.2,1.26,1.22,.01,2.64-1.3,3.95-3.95,3.95-8.39,0-16.79,0-25.18,0-2.63,0-4-1.43-3.91-4.08,.03-.84,.27-1.09,1.1-1.09,1.44,0,2.87,0,4.38,0Zm-3.81,1.64c-.02,1.33,.7,1.96,2.24,1.96,8.42,0,16.83,0,25.25,0,.25,0,.51-.01,.75-.06,.98-.18,1.48-.81,1.49-1.91H19.57Zm24.23-1.67c0-2.91,0-5.77,0-8.62,0-.6-.41-.81-.97-.81-1.26,0-2.53,0-3.79,0-1.05,0-1.25,.19-1.25,1.23,0,2.18,0,4.35,0,6.53,0,.55,0,1.1,0,1.67h6.03Zm-14.98-11.77h-2.59c.48,2.18-.53,3.92-1.44,5.74-.73,1.45-.77,3.07-.25,4.65,.37,1.13,.81,1.42,1.98,1.42,.78,0,1.57-.05,2.35,.01,.72,.06,1.16-.27,1.44-.85,.2-.4,.36-.84,.45-1.27,.35-1.84,0-3.57-1.01-5.14-.65-1.01-.97-2.09-.94-3.29,.01-.4,0-.8,0-1.26Z"/><path d="M54.9,55.17c-2.65-2.64-3.13-5.84-2.92-9.23,.06-.94,.21-1.88,.36-2.81,.13-.82,.7-1.07,1.3-.52,1.18,1.08,2.3,2.23,3.43,3.35,.15,.15,.27,.34,.47,.59,.09-.29,.16-.51,.23-.72,.72-2.19,1.92-4.09,3.43-5.81,.49-.56,1.01-.47,1.32,.23,.82,1.9,1.16,3.91,1.2,5.97,0,.46-.19,.79-.68,.78-.49,0-.64-.34-.7-.79-.17-1.46-.36-2.91-.56-4.48-.24,.14-.32,.16-.36,.22-1.37,1.79-2.38,3.74-2.71,6-.03,.21-.05,.46,.04,.64,1.03,2.06,1.53,4.25,1.59,6.52,1.69,.38,3.04-.04,4.12-1.38,1.46-1.81,1.89-3.89,1.9-6.21-1.47,1.12-2.86,2.18-4.25,3.23-.12,.09-.22,.21-.34,.31-.33,.26-.66,.24-.94-.06-.29-.31-.3-.67,.01-.94,.68-.59,1.42-1.1,2.1-1.69,1.09-.95,2.15-1.94,3.24-2.88,.26-.22,.61-.47,.91-.46,.49,.01,.51,.5,.56,.9,.25,2.04,.18,4.06-.59,5.98-.46,1.14-1.16,2.19-1.74,3.25,.14,.08,.54,.17,.68,.41,.15,.27,.1,.67,.07,1.01-.22,2.39-.47,4.77-.7,7.16-.19,2.08-1.22,3.04-3.29,3.05-1.34,0-2.68,.01-4.03,0-1.74-.02-2.81-.97-2.99-2.69-.28-2.58-.52-5.16-.79-7.74-.06-.53-.04-.99,.62-1.16Zm.89,1.47c-.03,.08-.06,.12-.05,.16,.24,2.45,.46,4.9,.72,7.35,.08,.73,.63,1.2,1.35,1.21,1.58,.02,3.17,.02,4.75,0,.72,0,1.28-.49,1.36-1.2,.27-2.49,.51-4.98,.77-7.52h-8.9Zm-2.18-12.32c-.47,1.95-.36,4.85,.24,6.67,.54,1.64,1.46,2.99,2.99,3.87,.66,.39,1.35,.42,2.12,.27-.13-4.43-2.1-7.89-5.34-10.81Z"/><g><path d="M44.46,30.83c-.02,6.59-5.4,11.95-11.98,11.91-6.59-.04-11.9-5.43-11.86-12.03,.04-6.51,5.42-11.86,11.9-11.84,6.61,.03,11.95,5.38,11.94,11.95Zm-1.62-.01c.02-5.71-4.58-10.3-10.34-10.3-5.63,0-10.27,4.6-10.28,10.22-.01,5.75,4.56,10.37,10.27,10.38,5.74,.01,10.33-4.56,10.35-10.3Z"/><path d="M32.53,39.49c-4.91-.07-8.72-3.97-8.65-8.85,.07-4.75,4.02-8.59,8.75-8.51,4.83,.08,8.68,4.05,8.59,8.85-.09,4.71-4.05,8.58-8.7,8.52Zm7.07-8.69c0-3.93-3.15-7.07-7.06-7.05-3.91,.02-7.06,3.17-7.07,7.07-.01,3.87,3.19,7.06,7.09,7.05,3.92,0,7.05-3.16,7.04-7.08Z"/><path d="M33.34,30.03c.56,0,1.01-.01,1.46,0,.49,.02,.76,.3,.75,.78,0,.48-.27,.77-.76,.78-.74,.02-1.48,.02-2.22,0-.56,0-.84-.33-.84-.88,0-1.2,0-2.4,0-3.59,0-.51,.27-.85,.77-.87,.56-.02,.82,.35,.83,.88,.01,.94,0,1.87,0,2.89Z"/></g></svg>